# xmcd
#
# Track frame offsets: 
#        150
#        14932
#        33676
#        45529
#        58715
#        78250
#        89820
#        102596
#        116182
#
# Disc length: 1760 seconds
#
# Revision: 0
# Processed by: cddbd v1.5.2PL0 Copyright (c) Steve Scherf et al.
# Submitted via: ExactAudioCopyFreeDBPlugin 1.0
#
DISCID=8206de09
DTITLE=Peter Breck - Just Kickin' Back
DYEAR=1998
DGENRE=Country
TTITLE0=Back Home
TTITLE1=She's My Woman
TTITLE2=Fishin'
TTITLE3=Lucky one
TTITLE4=Good Times
TTITLE5=If Wishes Were Horses
TTITLE6=Louisiana Rain
TTITLE7=Me and My Girl
TTITLE8=Crazy Joe
EXTD=
EXTT0=
EXTT1=
EXTT2=
EXTT3=
EXTT4=
EXTT5=
EXTT6=
EXTT7=
EXTT8=
PLAYORDER=
